<?xml version="1.0" encoding="utf-8"?>
<!-- Generator: Adobe Illustrator 25.2.0, SVG Export Plug-In . SVG Version: 6.00 Build 0)  -->
<svg version="1.1" id="Layer_1" xmlns="http://www.w3.org/2000/svg" xmlns:xlink="http://www.w3.org/1999/xlink" x="0px" y="0px"
	 viewBox="0 0 250 100" style="enable-background:new 0 0 250 100;" xml:space="preserve">
<style type="text/css">
	.st0{fill-rule:evenodd;clip-rule:evenodd;fill:#F6C100;}
	.st1{clip-path:url(#SVGID_1_);}
	.st2{fill-rule:evenodd;clip-rule:evenodd;fill:#1F1A17;}
	.st3{clip-path:url(#SVGID_2_);}
	.st4{fill:#272727;}
	.st5{fill:#F6C100;}
</style>
<path class="st0" d="M68.6,18.5c-0.3,1.1,2.9,1.6,3.8,0.8c3.7-2.9,8.2-6.3,8.7-10.5c0.3-2.3-5.2-5.4-7-3.6
	C70.6,8.8,69.7,14.3,68.6,18.5 M49.9,18.1c-1.2-5,1.7-10.5-0.6-14.6c-1.2-2.1-9.6-1.1-9.4,1.2c0.4,5,3.4,9.8,5.5,13.8
	C46,19.7,50.2,19.4,49.9,18.1z M26.9,28c-4.3-3.8-6.1-8.8-9.8-10.4c-2.9-1.2-8,3.2-6.9,5.8c1.9,4.1,7.9,6.2,12.8,7.6
	C24.7,31.4,28.1,29,26.9,28z M17.1,47.3C12.3,46.5,6.8,46,2.5,48c-2,0.9-1.4,5.5,0.9,5.7c4.6,0.4,9.7-1.6,14.2-3.1
	C18.8,50.2,18.4,47.6,17.1,47.3z M23.8,66.3c-3.6,1.7-8.3,2.2-10.7,4.3c-1.6,1.3,1.6,5.2,3.7,4.6c3.6-1.1,6.4-4.5,9.1-6.6
	C26.7,68,24.8,65.9,23.8,66.3z"/>
<g>
	<defs>
		<rect id="SVGID_5_" x="90.2" y="81.3" width="5.2" height="7.8"/>
	</defs>
	<clipPath id="SVGID_1_">
		<use xlink:href="#SVGID_5_"  style="overflow:visible;"/>
	</clipPath>
	<g class="st1">
		<path class="st0" d="M91.4,88.6c2.2-1.5,3.7-2.9,3.7-3.6c0-0.7-1.8-2-4.5-3.4c0.1,0.2,0.1,0.5,0.2,0.7c0.4,1.8,0.6,3.6,0.6,5.4v0
			C91.5,88.1,91.5,88.4,91.4,88.6"/>
	</g>
</g>
<path class="st2" d="M76.5,75.3c2.6,1.6,1.7,4.7,0.4,6.9c2.3,2.9,2.2,5.7,0.1,8.1c2.1,3.1,1.5,4.5,0.7,6.2c2.1-1.3,6.9-3.4,11.3-6.2
	c0.2-0.8,0.3-1.6,0.3-2.4v0c0-1.7-0.2-3.4-0.6-5c-0.2-0.9-0.5-1.7-0.9-2.5C83.9,78.4,80,76.5,76.5,75.3"/>
<g>
	<defs>
		<rect id="SVGID_7_" x="23.5" y="21.9" width="62.1" height="77.5"/>
	</defs>
	<clipPath id="SVGID_2_">
		<use xlink:href="#SVGID_7_"  style="overflow:visible;"/>
	</clipPath>
	<g class="st3">
		<path class="st0" d="M47.3,90.4c-1.8-0.1-3.2-1.4-3.1-2.9c0.1-1.5,1.6-2.7,3.4-2.6c9,0.4,15.9-0.3,22.7-1c0.4,0,0.3,0,1.4-0.1
			c1.8-0.2,3.4,0.9,3.6,2.4c0.2,1.5-1.1,2.9-2.8,3.1c-0.1,0,0,0-1.3,0.1h0C63.9,90,56.8,90.8,47.3,90.4 M50.3,99.4
			c-1.8,0-3.2-1.2-3.2-2.7c0-1.5,1.4-2.8,3.2-2.8c0.3,0,0.7,0,1.1,0c0.8,0,1.8,0,2.9-0.1c0.9,0,1.9-0.1,3-0.2c5-0.3,10-0.9,13.6-1.8
			c1.7-0.4,3.5,0.5,4,1.9c0.5,1.5-0.5,3-2.2,3.4c-4.1,1-9.6,1.6-14.8,2c-0.9,0.1-2,0.1-3.2,0.2c-1,0-2,0.1-3.1,0.1
			C51.2,99.4,50.8,99.4,50.3,99.4z M85.2,41.2c0.7,3.6-5.7,4.4-6.4,0.9C76.2,31.5,65,27.2,54.2,28C44.1,28.7,33.5,34.7,31,43.1
			c-1.3,4.4-0.2,9.5,2.6,13.3c2.6,3.6,6.4,5.7,10.1,9.2c0.6,0.6,1.2,1.2,1.7,1.9c1.6,2,2.8,4.4,3.3,6.8c0.3,1.5,0.7,1.8,1.6,1.9
			c6.5,0.5,14.4,0.2,20.8-1c1.7-0.3,3.5,0.6,3.8,2.1c0.4,1.5-0.8,3-2.5,3.3c-4.1,0.7-12,1.2-19.1,1c-1.5,0-2.9-0.1-4.1-0.2
			c-2.4-0.2-7.2-0.1-6.7-3.4c0.4-2.3-0.6-5.2-2.4-7.4C36,65.5,30.7,63.4,27.2,58c-2.8-4.4-3.9-10.1-2.8-15c2.7-11.7,16.9-20,31-20.5
			C69,21.9,82.6,28,85.2,41.2z"/>
	</g>
</g>
<g>
	<g transform="translate(117.068764, 209.974099)">
		<g>
			<path class="st4" d="M-41.2-147.1l1.2,0.5c-1.6,2.4-3.3,4.3-5.1,6c-1.8,1.6-3.5,2.7-5.1,3.3c-1.6,0.6-3.1,0.8-4.5,0.6
				c-1.4-0.2-2.5-0.9-3.4-2.1c-0.8-0.9-1.2-2.6-1.4-4.9c-0.2-2.3-0.3-4.5-0.2-6.4c0.1-2,0.3-4.6,0.6-7.9c0.3-3.3,0.5-5.4,0.6-6.2
				c0.1-1.2,0.6-2,1.7-2.6c1.1-0.6,2.4-0.9,3.9-0.9c1.6,0,3.1,0,4.6,0.1c1.5,0.1,3,0.3,4.3,0.4c1.3,0.2,2.1,0.2,2.4,0.1
				c0,0.1,0.1,0.2,0.1,0.4c0,0.2,0,0.4,0,0.9c0,0.4,0,0.8,0,1.2c0,0.4-0.1,0.8-0.3,1.3c-0.2,0.5-0.4,0.8-0.7,1.1
				c-0.3,0.3-0.7,0.5-1.2,0.7c-0.5,0.2-1.2,0.2-1.9,0.1c-2.6-0.3-4.4-0.5-5.5-0.6c-0.2,2.2-0.4,4.7-0.6,7.5c0.2,0.1,0.6,0.2,1,0.3
				c0.1,0,0.2,0.1,0.3,0.1c0.1,0,0.2,0,0.3,0c0.1,0,0.1,0,0.3,0c0,0,0.1,0,0.1,0c0.1,0,0.1,0,0.1,0c0.1,0,0.1,0,0.3,0
				c0.1,0,0.2,0,0.3,0c0.1,0,0.1,0,0.2,0c0.1,0,0.2,0,0.2,0h0.9l0.2,1.5h-0.2c-0.1,0-0.1,0-0.2,0h-1.3c-0.1,0-0.2,0-0.3,0
				s-0.2,0-0.3,0H-50c-0.1,0-0.2,0-0.3,0l-0.6-0.1c-0.1,0-0.2-0.1-0.4-0.1c-0.2,0-0.3,0-0.4,0c-0.3,5.7-0.3,9.5,0.2,11.5
				c0.4,1.8,1.7,2,4,0.5C-45.6-142-43.5-144.1-41.2-147.1z"/>
		</g>
	</g>
</g>
<g>
	<g transform="translate(139.771876, 209.974099)">
		<g>
			<path class="st4" d="M-47-150.8l0.9,0.4c-1.3,2.1-2.2,3.6-2.7,4.3c-0.4,0.7-0.9,1.3-1.3,1.8c-0.4,0.4-0.7,0.7-1,0.8
				c0,0-0.1,0.1-0.2,0.1c-0.1,0-0.1,0.1-0.2,0.1c0,0-0.1,0-0.2,0.1c-0.1,0-0.1,0-0.2,0.1c0,0-0.1,0-0.2,0.1h-0.1l0,0h-0.4
				c-0.2,0-0.4-0.1-0.5-0.2c-0.2-0.1-0.4-0.2-0.4-0.4c-0.1-0.1-0.2-0.4-0.3-0.8c-0.1-0.3-0.1-0.8-0.1-1.4c0-0.6,0.1-1.5,0.2-2.7
				c0.1-0.6,0.1-1,0.1-1.3c0-0.5,0-0.9,0-1.1c0-0.1-0.1-0.2-0.2-0.2c-0.1,0-0.2,0-0.3,0.1l-0.3,0.2c-0.2,0.2-0.4,0.5-0.6,0.9
				c-0.1,0.2-0.3,0.6-0.6,1c-0.4,1-0.7,1.6-0.8,1.9c-0.4,0.9-0.7,1.9-1,3l-0.4,1.2c-0.6,1.9-1.8,2.9-3.8,2.9c-1.2,0-2-0.4-2.6-1.2
				c-0.5-0.8-0.8-1.8-0.7-3.1c0.1-1.2,0.2-2.6,0.4-4c0.2-1.5,0.4-2.8,0.6-4.1c0.2-1.2,0.2-2.3,0-3.2c0.1,0,0.2-0.1,0.4-0.1
				c0.2,0,0.5-0.1,0.9-0.1c0.5,0,0.9,0,1.3,0.1c0.4,0.1,0.9,0.2,1.4,0.4c0.5,0.2,0.9,0.6,1.3,1c0.4,0.4,0.6,1,0.8,1.7
				c0.2,0.7,0.3,1.6,0.2,2.6v0.2c1.5-2.2,2.8-3.3,4-3.3c0.8,0,1.3,0.6,1.4,1.6c0.1,1.1,0.1,2.1-0.2,3c0,0.2,0,0.5-0.1,0.8v0.2
				c-0.1,0.3-0.1,0.8-0.2,1.4c0,0.6,0,1,0,1.2c0.1,0.2,0.1,0.3,0.1,0.4l0,0l0,0h0.1l0.1,0h0.1c0,0,0,0,0.1,0c0,0,0.1,0,0.1,0
				c0.1,0,0.1,0,0.1,0l0.1-0.1c0.1,0,0.1-0.1,0.1-0.1c0.1,0,0.3-0.3,0.8-0.6c0.5-0.5,0.9-1,1.3-1.6L-47-150.8z"/>
		</g>
	</g>
</g>
<g>
	<g transform="translate(158.521704, 209.974099)">
		<g>
			<path class="st4" d="M-43.1-151.8l0.4,0.9c-2.8,1.2-5.8,2.7-9,4.4c0.7,7.7,0.9,13.1,0.7,16c-0.4,4.5-1.5,6.7-3.6,6.8
				c-0.3,0-0.7,0.1-1.2,0c-0.4,0-1.1-0.2-2.1-0.5c-0.9-0.3-1.9-0.8-2.8-1.4c-0.9-0.6-1.9-1.6-3.1-2.9c-1.2-1.3-2.2-2.9-3.2-4.8
				c-1.7-2.8,1.3-6.5,8.8-11.1c-0.1-0.7-0.1-1.3-0.1-1.7c-1,0.9-2.3,1.7-3.9,2.3c-1.5,0.6-3,0.9-4.3,0.7c-1.4-0.2-2.4-0.8-2.8-1.8
				c-0.4-1-0.3-2.1,0.3-3.2c0.6-1.2,1.5-2.1,2.8-2.8c1.2-0.7,2.7-1.1,4.3-1.2c1.6-0.1,2.7-0.1,3.2,0.1c-0.1-1.3-0.2-2.1-0.3-2.5
				c0.1,0,0.2,0,0.4-0.1c0.2,0,0.5-0.1,0.9-0.1c0.4,0,0.9,0,1.3,0c0.4,0,0.9,0.2,1.4,0.4c0.5,0.2,1,0.5,1.4,0.8
				c0.4,0.3,0.7,0.8,1,1.5c0.3,0.6,0.5,1.4,0.6,2.3l0.1,2c1.4-0.7,2.8-1.4,4.3-2c1.5-0.7,2.6-1.1,3.3-1.4L-43.1-151.8z M-64.7-147.3
				c0,1.2,0.7,1.7,2.3,1.3c1.4-0.4,2.8-1.1,3.9-2.1c0,0,0.1-0.1,0.1-0.1v0c-0.1-0.9-0.1-1.5-0.2-2c-0.5,0-1,0-1.5,0.1
				c-0.6,0.1-1.2,0.2-2,0.4c-0.8,0.2-1.4,0.5-1.9,0.9C-64.4-148.4-64.7-147.9-64.7-147.3z M-58-132c0.1-2.9,0.1-6.5,0-10.7
				c-5.4,3.6-7.4,6.4-6.2,8.4c1.2,1.9,2.5,3.2,3.8,3.8c1.3,0.7,2.1,0.3,2.4-1C-58.1-131.7-58-131.8-58-132z"/>
		</g>
	</g>
</g>
<g>
	<g transform="translate(186.364075, 209.974099)">
		<g>
			<path class="st4" d="M-70.7-139.4c-0.4,0.2-0.9,0.3-1.4,0.3c-0.1,0-0.2,0-0.4,0h0c-2.6,0-3.7-5.4-3.2-16.1c0.1-2.2,0.3-5,0.6-8.3
				c0.3-2.4,0.6-3.9,0.9-4.4c0.4-0.6,0.9-0.8,1.6-0.8c1,0,2,0.3,3,0.9c0.8,0.5,1.6,1.2,2.3,2.1c0.7,1.1,1.3,2.4,1.5,3.9
				c0.5,2.7,0.1,5-1.1,7c-0.5,0.8-1.2,1.5-1.9,2.2c-0.1,2.7-0.2,5.1-0.1,7.2c0.1,1.2,0.2,1.9,0.5,2.1c0.2,0.2,0.8,0.1,1.6-0.4
				c1.2-0.6,2.3-1.5,3.4-2.5c1.1-1,1.8-1.9,2.3-2.6l0.7-1l1.2,0.4c-0.1,0.2-0.5,0.8-1.1,1.6c-0.7,0.9-1.5,1.9-2.5,3
				c-1,1.1-2.2,2.2-3.6,3.3C-68.1-140.5-69.4-139.8-70.7-139.4z M-68.9-154.5c1-1.2,1.6-2.5,1.8-3.9v-0.2c0-0.1,0-0.2,0-0.4
				c0-0.1,0-0.3,0-0.6c0-0.2,0-0.5-0.1-0.7c0-0.2-0.1-0.5-0.1-0.8c-0.1-0.3-0.1-0.5-0.2-0.8c-0.1-0.3-0.2-0.5-0.3-0.8
				c-0.1-0.3-0.3-0.5-0.5-0.7C-68.5-160.1-68.7-157.1-68.9-154.5z"/>
		</g>
	</g>
</g>
<g>
	<g transform="translate(202.68547, 209.974099)">
		<g>
			<path class="st4" d="M-64.8-150.7l1.3,0.4c0,0-0.2,0.4-0.6,1.1c-0.4,0.7-0.8,1.4-1.2,2.2c-0.4,0.7-1,1.6-1.8,2.6
				c-0.8,1-1.5,1.8-2.4,2.5c-0.8,0.7-1.8,1.3-2.9,1.8c-1.1,0.5-2.3,0.7-3.4,0.7c-1.3,0-2.3-0.5-2.9-1.3c-0.6-0.8-1-1.9-1-3.2
				c0-1.3,0-2.5,0.2-3.8c0.1-1.3,0.3-2.4,0.5-3.5c0.2-1.1,0.2-1.7,0.2-2c0.2,0,0.4-0.1,0.7-0.1c0.3,0,0.8,0,1.5,0
				c0.7,0,1.4,0.1,1.9,0.3c0.5,0.2,1,0.5,1.3,1.1c0.4,0.5,0.5,1.2,0.3,2c-0.8,4.5-0.7,6.9,0.4,7.3c0.4,0.1,1,0,1.8-0.4
				c0.9-0.5,1.9-1.4,2.9-2.7c1-1.3,1.8-2.4,2.4-3.4L-64.8-150.7z M-73.2-156.2c-0.6,0.5-1.4,0.8-2.3,0.8c-0.9,0-1.7-0.3-2.3-0.8
				c-0.6-0.5-0.9-1.2-0.9-2c0-0.8,0.3-1.4,0.9-1.9c0.6-0.5,1.4-0.8,2.3-0.8c0.9,0,1.7,0.3,2.3,0.8c0.6,0.5,1,1.2,1,1.9
				C-72.3-157.4-72.6-156.8-73.2-156.2z"/>
		</g>
	</g>
</g>
<g>
	<g transform="translate(217.651452, 209.974099)">
		<g>
			<path class="st4" d="M-64.8-149.3l0.2,0.9c-0.2-0.1-0.4-0.2-0.7-0.3c-0.3-0.1-0.9-0.3-1.8-0.6c-0.9-0.3-1.7-0.5-2.5-0.6
				c-0.8-0.1-1.6-0.1-2.5,0c-0.9,0.1-1.7,0.4-2.2,0.8c0.3,0.4,0.8,1,1.4,1.7c0.6,0.7,1.1,1.3,1.4,1.8c0.4,0.5,0.8,1,1.3,1.7
				c0.5,0.7,0.9,1.2,1.2,1.7c0.3,0.4,0.5,1,0.8,1.5c0.3,0.6,0.4,1.1,0.4,1.5c0,0.4,0,0.9-0.1,1.3c-0.1,0.4-0.3,0.8-0.7,1.2
				c-0.4,0.4-0.8,0.7-1.4,1c-2.1,0.8-3.8,1.1-5.2,0.8h0c-0.1,0-0.1,0-0.2,0c-0.4,0-0.7-0.1-1.1-0.3c-0.4-0.1-0.9-0.3-1.5-0.6
				c-0.7-0.4-1.2-0.8-1.6-1.3c-0.6-0.6-1-1.3-1.2-2c0,0,0-0.1,0-0.2c0-0.1,0-0.1,0-0.1l0-0.1v-0.1l0-0.1l0-0.1v-0.2
				c0-0.1,0-0.2,0-0.3c-0.1-0.4-0.1-0.8-0.1-1.2c0-0.9,0.1-1.7,0.3-2.5c0.3-0.8,0.6-1.5,1.1-2.3c0,0,0,0,0,0l0-0.1
				c-0.5-0.5-0.9-1.1-1.4-1.8c-0.8-1.1-1.4-2.1-1.7-3c-0.3-0.9-0.4-1.7-0.2-2.3c0.2-0.6,0.4-1.2,0.8-1.7c0.4-0.5,0.9-0.9,1.4-1.2
				c0.6-0.3,1.1-0.5,1.5-0.7c0.5-0.2,0.9-0.3,1.2-0.4l0.5-0.1c-0.8,1.6,0,3.9,2.3,7c0.9-0.4,1.9-0.7,2.9-0.8c1.1-0.1,2,0,2.9,0.1
				c0.9,0.2,1.6,0.4,2.4,0.6c0.7,0.2,1.3,0.5,1.7,0.7L-64.8-149.3z M-78.1-138.2c0.3,0.2,0.6,0.5,1.2,0.8l0.3,0.1
				c1,0.3,1.6,0.1,1.8-0.5c0.2-0.7,0.2-1.4-0.1-2.2c-0.3-0.8-0.7-1.5-1.2-2c-0.5-0.6-1.2-1.4-2.1-2.5c-0.1-0.1-0.2-0.3-0.3-0.3
				c-0.2,0.4-0.4,0.9-0.6,1.4c-0.2,0.7-0.2,1.4-0.2,2c0,0.2,0.1,0.5,0.1,1c0,0.1,0,0.2,0.1,0.3c0,0.1,0.1,0.2,0.1,0.3
				c0,0.1,0.1,0.2,0.1,0.3C-78.8-139-78.5-138.6-78.1-138.2z"/>
		</g>
	</g>
</g>
<g>
	<g transform="translate(238.095551, 209.974099)">
		<g>
			<path class="st4" d="M-64.4-149.7l0.8,0.2c-0.1,0.2-0.2,0.6-0.4,1c-0.2,0.4-0.6,1.1-1.1,2.1c-0.6,1-1.1,1.9-1.7,2.6
				c-0.6,0.7-1.2,1.4-2,1.9c-0.8,0.6-1.5,0.8-2.2,0.6c-0.8-0.1-1.5-0.9-2-2.1c-0.5-1.3-0.8-2.6-0.9-4.1c-0.1-1.5-0.4-2.8-0.8-3.9
				c-0.4-1.2-0.9-1.8-1.5-1.8c-0.5,0-0.9,0.5-1.2,1.5c-0.3,1-0.5,2.2-0.7,3.6c-0.2,1.4-0.5,2.8-0.8,4.2c-0.3,1.4-1,2.6-1.9,3.5
				c-0.9,1-2.1,1.4-3.5,1.4c-0.9,0-1.7-0.4-2.2-1.4c-0.6-1-0.9-2.2-1.1-3.7c-0.2-1.6-0.2-3.3-0.2-5.2c0-1.9,0.1-3.9,0.3-5.8
				c0.2-2,0.4-3.9,0.5-5.7c0.1-1.8,0.2-3.3,0.3-4.6c0.1-1.2,0.1-2.1-0.1-2.7c0.2,0,0.5-0.1,0.8-0.1c0.3,0,0.9,0,1.7,0
				c0.8,0.1,1.5,0.2,2.1,0.5c0.6,0.3,1.1,0.8,1.6,1.5c0.5,0.7,0.6,1.6,0.5,2.8c-0.5,5.5-0.8,10-0.9,13.7c1.1-4.4,2.7-6.6,4.8-6.6
				c1.1,0,2,0.7,2.6,2c0.6,1.3,1,2.8,1.1,4.4c0.1,1.6,0.3,3.1,0.6,4.6c0.3,1.4,0.7,2.2,1.2,2.3c0.7,0.1,1.5-0.3,2.6-1.4
				c1-1.1,1.9-2.3,2.6-3.4L-64.4-149.7z"/>
		</g>
	</g>
</g>
<g>
	<g transform="translate(184.644257, 228.382657)">
		<g>
			<path class="st5" d="M-70.9-151.6v1.2h-2.4v1.2h2.3v1.2h-2.3v1.2h2.4v1.2H-75v-6H-70.9z"/>
		</g>
	</g>
</g>
<g>
	<g transform="translate(193.028215, 228.382657)">
		<g>
			<path class="st5" d="M-70.3-145.5h-2.1l-1.7-2.1l-1.7,2.1h-2l2.7-3.2l-2.2-2.8h1.9l1.3,1.7l1.3-1.7h2l-2.3,2.8L-70.3-145.5z"/>
		</g>
	</g>
</g>
<g>
	<g transform="translate(203.855483, 228.382657)">
		<g>
			<path class="st5" d="M-79.5-151.6h2.6c0.7,0,1.3,0.2,1.7,0.5c0.4,0.3,0.7,0.8,0.7,1.4c0,0.6-0.2,1.1-0.7,1.4
				c-0.4,0.3-1,0.5-1.7,0.5h-1v2.2h-1.6V-151.6z M-77.9-148.8h0.5c0.4,0,0.7-0.1,0.9-0.2c0.2-0.1,0.3-0.3,0.3-0.6
				c0-0.3-0.1-0.5-0.3-0.6c-0.2-0.1-0.5-0.2-0.9-0.2h-0.5V-148.8z"/>
		</g>
	</g>
</g>
<g>
	<g transform="translate(213.203313, 228.382657)">
		<g>
			<path class="st5" d="M-81.7-151.6h2.5c0.7,0,1.2,0.2,1.7,0.5c0.4,0.3,0.6,0.8,0.6,1.3c0,0.4-0.1,0.8-0.4,1.1
				c-0.3,0.3-0.6,0.5-1.1,0.6l2.4,2.5h-2.1l-2.2-2.4v2.4h-1.6V-151.6z M-80-148.9h0.2c0.1,0,0.3,0,0.4,0c0.1,0,0.2,0,0.3-0.1
				c0.1,0,0.2-0.1,0.3-0.1c0.1-0.1,0.1-0.1,0.2-0.2c0.1-0.1,0.1-0.2,0.1-0.4c0-0.1,0-0.3-0.1-0.4c-0.1-0.1-0.1-0.2-0.2-0.2
				c-0.1-0.1-0.2-0.1-0.3-0.1c-0.1,0-0.2-0.1-0.3-0.1c-0.1,0-0.2,0-0.4,0H-80V-148.9z"/>
		</g>
	</g>
</g>
<g>
	<g transform="translate(223.111541, 228.382657)">
		<g>
			<path class="st5" d="M-79.9-151.6v1.2h-2.4v1.2h2.3v1.2h-2.3v1.2h2.4v1.2H-84v-6H-79.9z"/>
		</g>
	</g>
</g>
<g>
	<g transform="translate(231.495501, 228.382657)">
		<g>
			<path class="st5" d="M-83.3-151.7c0.4,0,0.8,0,1.1,0.1c0.4,0.1,0.6,0.2,0.8,0.3l0.3,0.2l-0.7,1.1c0,0-0.1-0.1-0.2-0.1
				c-0.1,0-0.3-0.1-0.5-0.2c-0.2-0.1-0.5-0.1-0.7-0.1c-0.3,0-0.5,0.1-0.6,0.2c-0.1,0.1-0.2,0.2-0.2,0.4c0,0.1,0,0.2,0.1,0.2
				c0.1,0.1,0.2,0.1,0.4,0.2c0.2,0.1,0.3,0.1,0.4,0.2c0.1,0,0.3,0.1,0.6,0.2c0.5,0.2,0.9,0.4,1.2,0.7c0.3,0.3,0.5,0.6,0.5,1
				c0,0.3-0.1,0.7-0.2,0.9c-0.1,0.3-0.3,0.5-0.6,0.6c-0.3,0.1-0.5,0.2-0.9,0.3c-0.3,0.1-0.6,0.1-1,0.1c-0.3,0-0.6,0-0.9-0.1
				c-0.3-0.1-0.5-0.1-0.7-0.2c-0.2-0.1-0.4-0.2-0.5-0.2c-0.2-0.1-0.3-0.1-0.3-0.2l-0.1-0.1l0.8-1.2c0.1,0,0.2,0.1,0.3,0.2
				c0.1,0.1,0.3,0.2,0.6,0.3c0.3,0.1,0.6,0.2,0.8,0.2c0.7,0,1-0.2,1-0.6c0-0.1,0-0.2-0.1-0.2c0-0.1-0.1-0.1-0.3-0.2
				c-0.1-0.1-0.2-0.1-0.3-0.2s-0.3-0.1-0.5-0.2c-0.2-0.1-0.4-0.2-0.5-0.2c-0.4-0.2-0.8-0.4-1-0.7c-0.2-0.3-0.3-0.6-0.3-0.9
				c0-0.5,0.2-1,0.7-1.3C-84.4-151.5-83.9-151.7-83.3-151.7z"/>
		</g>
	</g>
</g>
<g>
	<g transform="translate(240.910582, 228.382657)">
		<g>
			<path class="st5" d="M-85.5-151.7c0.4,0,0.8,0,1.1,0.1c0.4,0.1,0.6,0.2,0.8,0.3l0.3,0.2L-84-150c0,0-0.1-0.1-0.2-0.1
				c-0.1,0-0.3-0.1-0.5-0.2c-0.2-0.1-0.5-0.1-0.7-0.1c-0.3,0-0.5,0.1-0.6,0.2c-0.1,0.1-0.2,0.2-0.2,0.4c0,0.1,0,0.2,0.1,0.2
				c0.1,0.1,0.2,0.1,0.4,0.2s0.3,0.1,0.4,0.2c0.1,0,0.3,0.1,0.6,0.2c0.5,0.2,0.9,0.4,1.2,0.7c0.3,0.3,0.5,0.6,0.5,1
				c0,0.3-0.1,0.7-0.2,0.9c-0.1,0.3-0.3,0.5-0.6,0.6c-0.3,0.1-0.5,0.2-0.9,0.3c-0.3,0.1-0.6,0.1-1,0.1c-0.3,0-0.6,0-0.9-0.1
				c-0.3-0.1-0.5-0.1-0.7-0.2c-0.2-0.1-0.4-0.2-0.5-0.2c-0.2-0.1-0.3-0.1-0.3-0.2l-0.1-0.1l0.8-1.2c0.1,0,0.2,0.1,0.3,0.2
				c0.1,0.1,0.3,0.2,0.6,0.3c0.3,0.1,0.6,0.2,0.8,0.2c0.7,0,1-0.2,1-0.6c0-0.1,0-0.2-0.1-0.2c0-0.1-0.1-0.1-0.3-0.2
				c-0.1-0.1-0.2-0.1-0.3-0.2s-0.3-0.1-0.5-0.2c-0.2-0.1-0.4-0.2-0.5-0.2c-0.4-0.2-0.8-0.4-1-0.7c-0.2-0.3-0.3-0.6-0.3-0.9
				c0-0.5,0.2-1,0.7-1.3C-86.6-151.5-86.1-151.7-85.5-151.7z"/>
		</g>
	</g>
</g>
<g>
	<g transform="translate(250.325663, 228.382657)">
		<g>
			<path class="st5" d="M-84.9-145.5l-1.1-3.4l-1.1,3.4h-1.8l-2-6h1.8l1.2,4.1h0l1.3-4.1h1.2l1.3,4.1h0l1.2-4.1h1.8l-2,6H-84.9z"/>
		</g>
	</g>
</g>
<g>
	<g transform="translate(264.773071, 228.382657)">
		<g>
			<path class="st5" d="M-90.1-151.6l2.9,6H-89l-0.5-1.2h-2.7l-0.5,1.2h-1.7l2.9-6H-90.1z M-90-147.9l-0.8-1.8h0l-0.8,1.8H-90z"/>
		</g>
	</g>
</g>
<g>
	<g transform="translate(275.443437, 228.382657)">
		<g>
			<path class="st5" d="M-96.9-151.6h2l1.5,1.9l1.5-1.9h1.9l-2.6,3.3v2.7h-1.6v-2.7L-96.9-151.6z"/>
		</g>
	</g>
</g>
</svg>
