<svg xmlns="http://www.w3.org/2000/svg" xmlns:xlink="http://www.w3.org/1999/xlink" width="500" zoomAndPan="magnify" viewBox="0 0 375 374.999991" height="500" preserveAspectRatio="xMidYMid meet" version="1.0"><defs><g/><clipPath id="7bb51748ef"><path d="M 13.359375 0 L 361.359375 0 L 361.359375 220 L 13.359375 220 Z M 13.359375 0 " clip-rule="nonzero"/></clipPath><clipPath id="f42333bab8"><path d="M 126 114 L 261.089844 114 L 261.089844 277 L 126 277 Z M 126 114 " clip-rule="nonzero"/></clipPath><clipPath id="0171644453"><path d="M 137 95.039062 L 195 95.039062 L 195 280 L 137 280 Z M 137 95.039062 " clip-rule="nonzero"/></clipPath></defs><path fill="#006045" d="M 199.636719 372.683594 C 181.0625 331.917969 209.582031 275.710938 248.464844 275 C 281.570312 279.21875 291.765625 250.742188 302.53125 255.636719 C 300.28125 284.429688 274.347656 291.71875 248.433594 295.953125 C 249.570312 303.007812 254.820312 304.921875 263.132812 305.886719 C 301.476562 299.921875 319.261719 254.546875 342.945312 230.910156 C 345.160156 228.117188 350.726562 229.738281 350.121094 232.316406 L 323.84375 290.84375 C 282.195312 374.941406 225.210938 315.222656 199.636719 372.683594 Z M 199.636719 372.683594 " fill-opacity="1" fill-rule="evenodd"/><path fill="#006045" d="M 175.347656 372.683594 C 193.921875 331.917969 165.402344 275.710938 126.519531 275 C 93.414062 279.21875 83.222656 250.742188 72.453125 255.636719 C 74.703125 284.429688 100.640625 291.71875 126.550781 295.953125 C 125.414062 303.007812 120.164062 304.921875 111.851562 305.886719 C 73.507812 299.921875 55.722656 254.546875 32.042969 230.910156 C 29.824219 228.117188 24.257812 229.738281 24.863281 232.316406 L 51.140625 290.84375 C 92.792969 374.941406 149.777344 315.222656 175.347656 372.683594 Z M 175.347656 372.683594 " fill-opacity="1" fill-rule="evenodd"/><g clip-path="url(#7bb51748ef)"><path fill="#00bc7d" d="M 33.785156 219.109375 C 29.613281 204.855469 27.371094 189.785156 27.371094 174.203125 C 27.371094 85.914062 99.203125 14.085938 187.492188 14.085938 C 275.78125 14.085938 347.613281 85.914062 347.613281 174.203125 C 347.613281 189.789062 345.371094 204.855469 341.203125 219.109375 L 355.761719 219.109375 C 359.589844 204.777344 361.632812 189.726562 361.632812 174.203125 C 361.632812 78.183594 283.515625 0.0625 187.492188 0.0625 C 91.472656 0.0625 13.351562 78.183594 13.351562 174.203125 C 13.351562 189.726562 15.394531 204.777344 19.222656 219.109375 Z M 33.785156 219.109375 " fill-opacity="1" fill-rule="nonzero"/></g><g fill="#006045" fill-opacity="1"><g transform="translate(72.386601, 214.965555)"><g><path d="M -22.171875 -12.46875 L -4.125 -16.875 L -2.6875 -11 L -9.1875 -9.40625 L -8.21875 -5.453125 L -1.71875 -7.046875 L -0.296875 -1.1875 L -18.34375 3.21875 L -19.765625 -2.640625 L -13.265625 -4.21875 L -14.234375 -8.171875 L -20.734375 -6.59375 Z M -22.171875 -12.46875 "/></g></g></g><g fill="#006045" fill-opacity="1"><g transform="translate(67.607901, 194.524424)"><g><path d="M -18.609375 0.0625 L -19.03125 -5.953125 L -8.84375 -6.65625 C -7.75 -6.726562 -6.914062 -6.960938 -6.34375 -7.359375 C -5.78125 -7.753906 -5.519531 -8.289062 -5.5625 -8.96875 C -5.601562 -9.59375 -5.929688 -10.054688 -6.546875 -10.359375 C -7.171875 -10.671875 -8.03125 -10.789062 -9.125 -10.71875 L -19.3125 -10.015625 L -19.71875 -16.046875 L -9.53125 -16.75 C -6.78125 -16.9375 -4.601562 -16.378906 -3 -15.078125 C -1.40625 -13.785156 -0.519531 -11.851562 -0.34375 -9.28125 C -0.164062 -6.707031 -0.78125 -4.671875 -2.1875 -3.171875 C -3.59375 -1.671875 -5.671875 -0.828125 -8.421875 -0.640625 Z M -18.609375 0.0625 "/></g></g></g><g fill="#006045" fill-opacity="1"><g transform="translate(66.185026, 173.706476)"><g><path d="M 2.546875 -21.5 L 1.828125 -15.484375 L -5.59375 -16.359375 L -0.5 -12.765625 L -0.78125 -10.40625 L -6.5625 -8.078125 L 0.859375 -7.203125 L 0.140625 -1.203125 L -18.3125 -3.390625 L -17.671875 -8.75 L -7.46875 -12.40625 L -16.546875 -18.34375 L -15.90625 -23.6875 Z M 2.546875 -21.5 "/></g></g></g><g fill="#006045" fill-opacity="1"><g transform="translate(69.46166, 148.87708)"><g><path d="M 1.484375 -13.515625 L -0.421875 -7.578125 L 1.875 -5.796875 L 0.078125 -0.25 L -15.484375 -12.546875 L -13.609375 -18.34375 L 6.1875 -19.203125 L 4.375 -13.609375 Z M -3.234375 -13.34375 L -8.515625 -13.5 L -4.15625 -10.515625 Z M -3.234375 -13.34375 "/></g></g></g><g fill="#006045" fill-opacity="1"><g transform="translate(76.708162, 127.320557)"><g><path d="M 0.578125 -1.078125 L -15.84375 -9.8125 L -13.453125 -14.3125 L -3.484375 -14.6875 L -11.078125 -18.734375 L -8.25 -24.078125 L 8.15625 -15.34375 L 5.75 -10.875 L -4.1875 -10.453125 L 3.40625 -6.40625 Z M 0.578125 -1.078125 "/></g></g></g><g fill="#006045" fill-opacity="1"><g transform="translate(87.181789, 108.73794)"><g><path d="M -10.890625 -16.703125 L 4.21875 -5.890625 L 0.703125 -0.984375 L -14.40625 -11.796875 Z M -10.890625 -16.703125 "/></g></g></g><g fill="#006045" fill-opacity="1"><g transform="translate(93.636129, 99.49037)"><g><path d="M 2.03125 -21.71875 L -1.40625 -18.03125 L 8.34375 -8.890625 L 4.21875 -4.5 L -5.53125 -13.640625 L -9.015625 -9.921875 L -12.8125 -13.484375 L -1.765625 -25.28125 Z M 2.03125 -21.71875 "/></g></g></g><g fill="#006045" fill-opacity="1"><g transform="translate(107.949472, 84.489732)"><g><path d="M 3.671875 -26.0625 L 5.453125 -13.609375 L 10.015625 -7.5625 L 5.1875 -3.921875 L 0.625 -9.96875 L -10.875 -15.078125 L -5.796875 -18.90625 L 0.03125 -15.75 L -1.390625 -22.234375 Z M 3.671875 -26.0625 "/></g></g></g><g fill="#006045" fill-opacity="1"><g transform="translate(125.64837, 71.865306)"><g/></g></g><g fill="#006045" fill-opacity="1"><g transform="translate(132.404077, 67.678856)"><g><path d="M 7.671875 -11.75 C 8.171875 -9.914062 7.835938 -8.75 6.671875 -8.25 C 5.972656 -7.945312 5.273438 -8.054688 4.578125 -8.578125 C 3.890625 -9.097656 3.269531 -10 2.71875 -11.28125 C 2.15625 -12.570312 1.921875 -13.648438 2.015625 -14.515625 C 2.117188 -15.390625 2.519531 -15.976562 3.21875 -16.28125 C 3.738281 -16.507812 4.285156 -16.472656 4.859375 -16.171875 C 5.429688 -15.878906 5.96875 -15.34375 6.46875 -14.5625 L 11.453125 -17.71875 C 10.117188 -19.625 8.554688 -20.863281 6.765625 -21.4375 C 4.984375 -22.019531 3.101562 -21.882812 1.125 -21.03125 C -1.332031 -19.96875 -2.894531 -18.382812 -3.5625 -16.28125 C -4.238281 -14.1875 -3.96875 -11.734375 -2.75 -8.921875 C -1.539062 -6.117188 0.0546875 -4.238281 2.046875 -3.28125 C 4.035156 -2.320312 6.257812 -2.375 8.71875 -3.4375 C 10.695312 -4.289062 12.085938 -5.566406 12.890625 -7.265625 C 13.691406 -8.972656 13.859375 -10.953125 13.390625 -13.203125 Z M 7.671875 -11.75 "/></g></g></g><g fill="#006045" fill-opacity="1"><g transform="translate(151.616251, 59.54086)"><g><path d="M 12.359375 -5.671875 L 6.28125 -4.25 L 5.9375 -1.390625 L 0.265625 -0.0625 L 2.78125 -19.734375 L 8.71875 -21.125 L 19.640625 -4.59375 L 13.921875 -3.25 Z M 9.765625 -9.640625 L 7.203125 -14.25 L 6.875 -8.96875 Z M 9.765625 -9.640625 "/></g></g></g><g fill="#006045" fill-opacity="1"><g transform="translate(173.834147, 54.655248)"><g><path d="M 14.828125 -8.796875 C 16.203125 -7.804688 16.953125 -6.191406 17.078125 -3.953125 L 17.234375 -0.90625 L 11.765625 -0.625 L 11.5625 -4.453125 C 11.476562 -6.078125 10.65625 -6.984375 9.09375 -7.171875 L 6.875 -7.046875 L 7.234375 -0.375 L 1.21875 -0.0625 L 0.234375 -18.609375 L 10.03125 -19.125 C 12.0625 -19.226562 13.648438 -18.796875 14.796875 -17.828125 C 15.953125 -16.867188 16.578125 -15.4375 16.671875 -13.53125 C 16.785156 -11.457031 16.171875 -9.878906 14.828125 -8.796875 Z M 9.609375 -11.65625 C 10.796875 -11.71875 11.367188 -12.207031 11.328125 -13.125 C 11.273438 -14.0625 10.65625 -14.5 9.46875 -14.4375 L 6.5 -14.28125 L 6.640625 -11.5 Z M 9.609375 -11.65625 "/></g></g></g><g fill="#006045" fill-opacity="1"><g transform="translate(194.691413, 53.827387)"><g><path d="M 8.734375 -13.046875 L 8.46875 -10.65625 L 16.625 -9.75 L 16.140625 -5.3125 L 7.984375 -6.21875 L 7.71875 -3.8125 L 15.875 -2.90625 L 15.359375 1.703125 L 1.21875 0.140625 L 3.265625 -18.328125 L 17.40625 -16.765625 L 16.890625 -12.140625 Z M 8.734375 -13.046875 "/></g></g></g><g fill="#006045" fill-opacity="1"><g transform="translate(214.145516, 56.475108)"><g/></g></g><g fill="#006045" fill-opacity="1"><g transform="translate(221.988155, 58.085764)"><g><path d="M 11.421875 -10.75 L 10.625 -8.484375 L 18.375 -5.796875 L 16.921875 -1.59375 L 9.171875 -4.28125 L 6.84375 2.390625 L 1.15625 0.40625 L 7.265625 -17.140625 L 20.703125 -12.46875 L 19.171875 -8.0625 Z M 11.421875 -10.75 "/></g></g></g><g fill="#006045" fill-opacity="1"><g transform="translate(240.037305, 64.464179)"><g><path d="M 8.390625 4.953125 C 5.960938 3.617188 4.476562 1.851562 3.9375 -0.34375 C 3.40625 -2.550781 3.875 -4.988281 5.34375 -7.65625 C 6.820312 -10.34375 8.628906 -12.046875 10.765625 -12.765625 C 12.898438 -13.492188 15.179688 -13.191406 17.609375 -11.859375 C 20.054688 -10.515625 21.539062 -8.75 22.0625 -6.5625 C 22.59375 -4.382812 22.117188 -1.953125 20.640625 0.734375 C 19.171875 3.398438 17.375 5.101562 15.25 5.84375 C 13.125 6.59375 10.835938 6.296875 8.390625 4.953125 Z M 10.90625 0.359375 C 11.664062 0.773438 12.441406 0.765625 13.234375 0.328125 C 14.023438 -0.0976562 14.757812 -0.914062 15.4375 -2.125 C 16.101562 -3.375 16.40625 -4.441406 16.34375 -5.328125 C 16.28125 -6.222656 15.867188 -6.878906 15.109375 -7.296875 C 14.328125 -7.734375 13.539062 -7.734375 12.75 -7.296875 C 11.96875 -6.867188 11.238281 -6.035156 10.5625 -4.796875 C 9.894531 -3.578125 9.585938 -2.519531 9.640625 -1.625 C 9.703125 -0.738281 10.125 -0.078125 10.90625 0.359375 Z M 10.90625 0.359375 "/></g></g></g><g fill="#006045" fill-opacity="1"><g transform="translate(259.043623, 75.17013)"><g><path d="M 12.578125 -13.734375 L 17.28125 -9.96875 L 10.890625 -1.984375 C 10.203125 -1.140625 9.8125 -0.375 9.71875 0.3125 C 9.625 1 9.84375 1.550781 10.375 1.96875 C 10.863281 2.363281 11.429688 2.4375 12.078125 2.1875 C 12.722656 1.945312 13.390625 1.40625 14.078125 0.5625 L 20.46875 -7.421875 L 25.1875 -3.640625 L 18.796875 4.34375 C 17.066406 6.488281 15.179688 7.710938 13.140625 8.015625 C 11.097656 8.316406 9.070312 7.65625 7.0625 6.03125 C 5.050781 4.425781 3.96875 2.597656 3.8125 0.546875 C 3.664062 -1.503906 4.457031 -3.601562 6.1875 -5.75 Z M 12.578125 -13.734375 "/></g></g></g><g fill="#006045" fill-opacity="1"><g transform="translate(275.294412, 88.458758)"><g><path d="M 0.8125 0.90625 L 14.75 -11.421875 L 18.125 -7.59375 L 14.984375 1.859375 L 21.421875 -3.828125 L 25.421875 0.703125 L 11.515625 13.015625 L 8.171875 9.1875 L 11.265625 -0.28125 L 4.8125 5.421875 Z M 0.8125 0.90625 "/></g></g></g><g fill="#006045" fill-opacity="1"><g transform="translate(289.050295, 104.326253)"><g><path d="M 20.359375 -2.421875 C 21.828125 -0.046875 22.273438 2.203125 21.703125 4.328125 C 21.128906 6.453125 19.578125 8.300781 17.046875 9.875 C 14.523438 11.4375 12.179688 12 10.015625 11.5625 C 7.847656 11.132812 6.03125 9.734375 4.5625 7.359375 L 0.640625 1.03125 L 16.4375 -8.75 Z M 9.1875 4.9375 C 9.582031 5.582031 10.195312 5.894531 11.03125 5.875 C 11.863281 5.851562 12.828125 5.503906 13.921875 4.828125 C 15.035156 4.140625 15.78125 3.425781 16.15625 2.6875 C 16.539062 1.957031 16.535156 1.269531 16.140625 0.625 L 15.1875 -0.890625 L 8.234375 3.421875 Z M 9.1875 4.9375 "/></g></g></g><g fill="#006045" fill-opacity="1"><g transform="translate(299.846569, 121.973061)"><g><path d="M 7.453125 11.390625 L 5.15625 5.59375 L 2.25 5.65625 L 0.09375 0.25 L 19.921875 -0.171875 L 22.171875 5.5 L 7.453125 18.75 L 5.28125 13.28125 Z M 11 8.21875 L 15.171875 5 L 9.890625 5.453125 Z M 11 8.21875 "/></g></g></g><g fill="#006045" fill-opacity="1"><g transform="translate(307.972108, 143.221858)"><g><path d="M 16.5625 14.203125 L 15.546875 9.25 L 2.4375 11.9375 L 1.234375 6.046875 L 14.34375 3.359375 L 13.328125 -1.625 L 18.421875 -2.65625 L 21.65625 13.171875 Z M 16.5625 14.203125 "/></g></g></g><g fill="#006045" fill-opacity="1"><g transform="translate(311.698754, 163.972057)"><g><path d="M 19.046875 5.9375 L 0.515625 7.234375 L 0.078125 1.21875 L 18.609375 -0.078125 Z M 19.046875 5.9375 "/></g></g></g><g fill="#006045" fill-opacity="1"><g transform="translate(312.672552, 175.171138)"><g><path d="M -0.9375 9.703125 C -0.75 6.929688 0.222656 4.835938 1.984375 3.421875 C 3.753906 2.015625 6.160156 1.410156 9.203125 1.609375 C 12.265625 1.804688 14.570312 2.71875 16.125 4.34375 C 17.6875 5.976562 18.375 8.179688 18.1875 10.953125 C 18.007812 13.734375 17.039062 15.820312 15.28125 17.21875 C 13.53125 18.613281 11.125 19.210938 8.0625 19.015625 C 5.019531 18.816406 2.710938 17.910156 1.140625 16.296875 C -0.421875 14.679688 -1.113281 12.484375 -0.9375 9.703125 Z M 4.28125 10.046875 C 4.226562 10.898438 4.5625 11.59375 5.28125 12.125 C 6.007812 12.65625 7.0625 12.976562 8.4375 13.09375 C 9.851562 13.164062 10.953125 12.984375 11.734375 12.546875 C 12.523438 12.109375 12.945312 11.460938 13 10.609375 C 13.0625 9.710938 12.726562 9 12 8.46875 C 11.28125 7.945312 10.21875 7.640625 8.8125 7.546875 C 7.425781 7.453125 6.335938 7.617188 5.546875 8.046875 C 4.765625 8.484375 4.34375 9.148438 4.28125 10.046875 Z M 4.28125 10.046875 "/></g></g></g><g fill="#006045" fill-opacity="1"><g transform="translate(310.99667, 196.921523)"><g><path d="M -0.296875 1.1875 L 17.78125 5.609375 L 16.578125 10.546875 L 7.015625 13.375 L 15.359375 15.40625 L 13.921875 21.28125 L -4.125 16.875 L -2.890625 11.953125 L 6.640625 9.09375 L -1.71875 7.046875 Z M -0.296875 1.1875 "/></g></g></g><g clip-path="url(#f42333bab8)"><path fill="#00bc7d" d="M 205.125 218.5 C 206.039062 225.691406 206.632812 232.828125 206.792969 239.890625 C 207.144531 256.234375 202.714844 263.316406 193.070312 276.742188 C 200.125 256.628906 200.992188 238.816406 195.433594 223.398438 C 196.316406 223.027344 197.210938 222.632812 198.109375 222.222656 C 200.445312 221.164062 202.796875 219.910156 205.125 218.5 M 153.832031 120.589844 C 158.679688 149.195312 166.625 172.273438 179.183594 187.171875 C 183.109375 172.78125 188.65625 160.664062 195.515625 150.390625 C 211.214844 126.882812 232.773438 115.730469 261.351562 114.796875 C 241.425781 122.910156 223.488281 138.019531 213.363281 157.113281 C 206.742188 169.589844 202.8125 183.59375 202.078125 199.417969 L 202.238281 200.277344 C 207.089844 196.949219 211.527344 193.097656 215.371094 188.820312 C 201.933594 210.300781 173.347656 221.171875 148.6875 219.503906 C 124.292969 217.847656 117.867188 199.882812 141.738281 187.261719 C 127.171875 198.996094 132.792969 210.261719 149.761719 213.03125 C 162.257812 215.070312 175.398438 213.148438 187.351562 208.28125 C 187.136719 207.984375 186.917969 207.691406 186.695312 207.402344 C 149.429688 163.519531 152.53125 136.46875 153.832031 120.589844 Z M 153.832031 120.589844 " fill-opacity="1" fill-rule="evenodd"/></g><g clip-path="url(#0171644453)"><path fill="#006045" d="M 189.992188 225.503906 C 197.066406 243.628906 194.96875 263.675781 183.136719 279.960938 C 186.785156 258.277344 179.757812 246.285156 169.007812 229.8125 C 175.953125 229.402344 182.910156 227.984375 189.992188 225.503906 M 142.367188 95.039062 C 143.71875 130.996094 149.902344 166.148438 171.328125 195.765625 C 174.359375 199.953125 177.472656 204.058594 180.394531 208.289062 C 173.085938 210.558594 165.394531 211.714844 157.757812 211.457031 C 156.207031 208.703125 154.699219 205.921875 153.238281 203.101562 C 135.652344 169.203125 134.332031 132.152344 142.367188 95.039062 Z M 142.367188 95.039062 " fill-opacity="1" fill-rule="evenodd"/></g><path fill="#006045" d="M 132.628906 220.699219 C 157.300781 226.355469 173.257812 226.722656 195.8125 215.347656 C 207.136719 209.636719 218.261719 200.527344 225.960938 190.019531 C 230.363281 183.996094 231.722656 177.746094 228.121094 170.664062 C 228.910156 175.980469 228.046875 180.265625 225.734375 183.648438 C 221.792969 182.632812 218.601562 180.546875 217.003906 176.226562 C 214.125 168.433594 218.035156 159.902344 222.652344 153.625 C 225.941406 160.90625 228.605469 162.992188 231.957031 168.757812 C 236.4375 176.457031 234.601562 183.753906 229.707031 191.644531 C 222.320312 203.550781 209.152344 214.613281 197.140625 220.097656 C 175.222656 230.101562 155.050781 229.871094 132.628906 220.699219 " fill-opacity="1" fill-rule="evenodd"/><path fill="#006045" d="M 176.734375 116.1875 C 168.496094 116.207031 161.828125 122.902344 161.847656 131.140625 C 161.871094 139.378906 168.566406 146.042969 176.800781 146.023438 C 185.039062 146.003906 191.707031 139.308594 191.6875 131.070312 C 191.664062 122.832031 184.972656 116.164062 176.734375 116.1875 " fill-opacity="1" fill-rule="evenodd"/></svg>